<?xml version="1.0" ?><!DOCTYPE svg  PUBLIC '-//W3C//DTD SVG 1.0//EN'  'http://www.w3.org/TR/2001/REC-SVG-20010904/DTD/svg10.dtd'><svg enable-background="new 0 0 512 512" id="Layer_1" version="1.0" viewBox="0 0 512 512" xml:space="preserve" xmlns="http://www.w3.org/2000/svg" xmlns:xlink="http://www.w3.org/1999/xlink"><g><g><g><path d="M156.9,77.5v79.3h-48.3c-6.6,0-12.3-4.5-13.9-10.9L82,95.4c-2.3-9.1,4.6-17.9,13.9-17.9H156.9z" fill="#544741"/><g><path d="M149.4,77.5c0,26.4,0,52.9,0,79.3c2.5-2.5,5-5,7.5-7.5c-12.3,0-24.6,0-36.9,0c-4.3,0-9.3,0.7-13.5-0.3      c-4.8-1.2-5.3-7.8-6.3-11.7c-3.4-13.7-6.9-27.5-10.3-41.2c-1.2-4.9-0.5-11,6.1-11c3.9,0,7.9,0,11.8,0c16.4,0,32.7,0,49.1,0      c9.7,0,9.7-15,0-15c-11.5,0-22.9,0-34.4,0c-7,0-14,0-21,0c-6,0-11.4,0.1-16.8,3.2c-16.1,9-8.9,27.7-5.5,41.4      c1.9,7.7,3.8,15.3,5.7,23c1.1,4.3,1.8,8.9,3.5,13c6.4,15.6,22.4,13.8,36.1,13.8c10.8,0,21.6,0,32.4,0c4.1,0,7.5-3.4,7.5-7.5      c0-26.4,0-52.9,0-79.3C164.4,67.9,149.4,67.9,149.4,77.5z"/></g></g><g><path d="M430,95.4L417.3,146c-1.6,6.4-7.3,10.9-13.9,10.9h-48.3V77.5h60.9C425.4,77.5,432.3,86.3,430,95.4z" fill="#544741"/><g><path d="M422.8,93.4c-4.3,17.3-7.9,34.9-13.1,51.9c-1.3,4.3-6.3,4-9.8,4c-5.4,0-10.8,0-16.2,0c-9.5,0-19.1,0-28.6,0      c2.5,2.5,5,5,7.5,7.5c0-26.4,0-52.9,0-79.3c-2.5,2.5-5,5-7.5,7.5c12.1,0,24.3,0,36.4,0c6.9,0,13.8,0,20.7,0      C417.5,85,424.2,86.2,422.8,93.4c-1.9,9.4,12.6,13.5,14.5,4C440,83.6,430.6,70,416,70c-5.6,0-11.3,0-16.9,0      c-14.6,0-29.3,0-43.9,0c-4.1,0-7.5,3.4-7.5,7.5c0,26.4,0,52.9,0,79.3c0,4.1,3.4,7.5,7.5,7.5c9.8,0,19.7,0,29.5,0      c11.8,0,25.8,2.3,34.8-7.1c3.6-3.8,4.9-8.6,6.1-13.5c1.5-5.9,3-11.8,4.4-17.7c2.4-9.5,4.8-19.1,7.2-28.6      C439.6,88,425.1,84,422.8,93.4z"/></g></g><g><path d="M156.9,216.3v79.3h-48.3c-6.6,0-12.3-4.5-13.9-10.9L82,234.2c-2.3-9.1,4.6-17.9,13.9-17.9H156.9z" fill="#544741"/><g><path d="M149.4,216.3c0,26.4,0,52.9,0,79.3c2.5-2.5,5-5,7.5-7.5c-12.3,0-24.6,0-36.9,0c-4.3,0-9.3,0.7-13.5-0.3      c-4.8-1.2-5.3-7.8-6.3-11.7c-3.4-13.7-6.9-27.5-10.3-41.2c-1.2-4.9-0.5-11,6.1-11c3.9,0,7.9,0,11.8,0c16.4,0,32.7,0,49.1,0      c9.7,0,9.7-15,0-15c-11.5,0-22.9,0-34.4,0c-7,0-14,0-21,0c-6,0-11.4,0.1-16.8,3.2c-16.1,9-8.9,27.7-5.5,41.4      c1.9,7.7,3.8,15.3,5.7,23c1.1,4.3,1.8,8.9,3.5,13c6.4,15.6,22.4,13.8,36.1,13.8c10.8,0,21.6,0,32.4,0c4.1,0,7.5-3.4,7.5-7.5      c0-26.4,0-52.9,0-79.3C164.4,206.7,149.4,206.7,149.4,216.3z"/></g></g><g><path d="M430,234.2l-12.7,50.6c-1.6,6.4-7.3,10.9-13.9,10.9h-48.3v-79.3h60.9C425.4,216.3,432.3,225.1,430,234.2z     " fill="#544741"/><g><path d="M422.8,232.2c-4.3,17.3-7.9,34.9-13.1,51.9c-1.3,4.3-6.3,4-9.8,4c-5.4,0-10.8,0-16.2,0c-9.5,0-19.1,0-28.6,0      c2.5,2.5,5,5,7.5,7.5c0-26.4,0-52.9,0-79.3c-2.5,2.5-5,5-7.5,7.5c12.1,0,24.3,0,36.4,0c6.9,0,13.8,0,20.7,0      C417.5,223.8,424.2,225,422.8,232.2c-1.9,9.4,12.6,13.5,14.5,4c2.8-13.7-6.6-27.3-21.3-27.3c-5.6,0-11.3,0-16.9,0      c-14.6,0-29.3,0-43.9,0c-4.1,0-7.5,3.4-7.5,7.5c0,26.4,0,52.9,0,79.3c0,4.1,3.4,7.5,7.5,7.5c9.8,0,19.7,0,29.5,0      c11.8,0,25.8,2.3,34.8-7.1c3.6-3.8,4.9-8.6,6.1-13.5c1.5-5.9,3-11.8,4.4-17.7c2.4-9.5,4.8-19.1,7.2-28.6      C439.6,226.8,425.1,222.8,422.8,232.2z"/></g></g><g><path d="M156.9,355.2v79.3h-48.3c-6.6,0-12.3-4.5-13.9-10.9L82,373c-2.3-9.1,4.6-17.8,13.9-17.8H156.9z" fill="#544741"/><g><path d="M149.4,355.2c0,26.4,0,52.9,0,79.3c2.5-2.5,5-5,7.5-7.5c-12.3,0-24.6,0-36.9,0c-4.3,0-9.3,0.7-13.5-0.3      c-4.8-1.2-5.3-7.8-6.3-11.7c-3.4-13.7-6.9-27.5-10.3-41.2c-1.2-4.9-0.5-11,6.1-11c3.9,0,7.9,0,11.8,0c16.4,0,32.7,0,49.1,0      c9.7,0,9.7-15,0-15c-11.5,0-22.9,0-34.4,0c-7,0-14,0-21,0c-6,0-11.4,0.1-16.8,3.2c-16.1,9-8.9,27.7-5.5,41.4      c1.9,7.7,3.8,15.3,5.7,23c1.1,4.3,1.8,8.9,3.5,13c6.4,15.6,22.4,13.8,36.1,13.8c10.8,0,21.6,0,32.4,0c4.1,0,7.5-3.4,7.5-7.5      c0-26.4,0-52.9,0-79.3C164.4,345.5,149.4,345.5,149.4,355.2z"/></g></g><g><path d="M430,373l-12.7,50.6c-1.6,6.4-7.3,10.9-13.9,10.9h-48.3v-79.3h60.9C425.4,355.2,432.3,363.9,430,373z" fill="#544741"/><g><path d="M422.8,371c-4.3,17.3-7.9,34.9-13.1,51.9c-1.3,4.3-6.3,4-9.8,4c-5.4,0-10.8,0-16.2,0c-9.5,0-19.1,0-28.6,0      c2.5,2.5,5,5,7.5,7.5c0-26.4,0-52.9,0-79.3c-2.5,2.5-5,5-7.5,7.5c12.1,0,24.3,0,36.4,0c6.9,0,13.8,0,20.7,0      C417.5,362.7,424.2,363.8,422.8,371c-1.9,9.4,12.6,13.5,14.5,4c2.8-13.7-6.6-27.3-21.3-27.3c-5.6,0-11.3,0-16.9,0      c-14.6,0-29.3,0-43.9,0c-4.1,0-7.5,3.4-7.5,7.5c0,26.4,0,52.9,0,79.3c0,4.1,3.4,7.5,7.5,7.5c9.8,0,19.7,0,29.5,0      c11.8,0,25.8,2.3,34.8-7.1c3.6-3.8,4.9-8.6,6.1-13.5c1.5-5.9,3-11.8,4.4-17.7c2.4-9.5,4.8-19.1,7.2-28.6      C439.6,365.6,425.1,361.6,422.8,371z"/></g></g></g><g><path d="M340.8,18H171.2c-7.9,0-14.4,6.4-14.4,14.4v447.2c0,7.9,6.4,14.4,14.4,14.4h169.6    c7.9,0,14.4-6.4,14.4-14.4V32.4C355.2,24.5,348.7,18,340.8,18z M256,434.5c-21.9,0-39.6-17.7-39.6-39.7    c0-21.9,17.7-39.7,39.6-39.7c21.9,0,39.7,17.8,39.7,39.7C295.7,416.7,277.9,434.5,256,434.5z M256,295.7    c-21.9,0-39.6-17.8-39.6-39.7c0-21.9,17.7-39.7,39.6-39.7c21.9,0,39.7,17.8,39.7,39.7C295.7,277.9,277.9,295.7,256,295.7z     M256,156.8c-21.9,0-39.6-17.8-39.6-39.6c0-21.9,17.7-39.7,39.6-39.7c21.9,0,39.7,17.8,39.7,39.7    C295.7,139.1,277.9,156.8,256,156.8z" fill="#736357"/><g><path d="M256,149.3c-17.8-0.3-31.8-14.4-32.1-32.1C223.5,99.4,238.7,85.3,256,85c17.8-0.3,31.9,14.8,32.2,32.2     C288.5,135,273.3,149.1,256,149.3c-9.7,0.2-9.7,15.2,0,15c24.7-0.4,44-18.7,46.9-43c2.9-23.7-15.2-46.1-38.1-50.4     c-24-4.6-47.3,10.4-54.2,33.5c-7.1,23.7,6.8,47.8,28.9,56.9c5.2,2.1,11,2.9,16.5,3C265.7,164.5,265.7,149.5,256,149.3z"/><path d="M256,288.2c-17.8-0.3-31.8-14.4-32.1-32.2c-0.3-17.8,14.8-31.9,32.1-32.2c17.8-0.3,31.9,14.8,32.2,32.2     C288.5,273.8,273.3,287.9,256,288.2c-9.7,0.2-9.7,15.2,0,15c24.7-0.4,44-18.7,46.9-43c2.9-23.7-15.2-46.1-38.1-50.4     c-24-4.6-47.3,10.4-54.2,33.5c-7.1,23.7,6.8,47.8,28.9,56.9c5.2,2.1,11,2.9,16.5,3C265.7,303.3,265.7,288.3,256,288.2z"/><path d="M256,427c-17.8-0.3-31.8-14.4-32.1-32.2c-0.3-17.8,14.8-31.9,32.1-32.2c17.8-0.3,31.9,14.8,32.2,32.2     C288.5,412.6,273.3,426.7,256,427c-9.7,0.2-9.7,15.2,0,15c24.7-0.4,44-18.7,46.9-43c2.9-23.7-15.2-46.1-38.1-50.4     c-24-4.6-47.3,10.4-54.2,33.5c-7.1,23.7,6.8,47.8,28.9,56.9c5.2,2.1,11,2.9,16.5,3C265.7,442.1,265.7,427.1,256,427z"/><path d="M340.8,10.5c-49.8,0-99.5,0-149.3,0c-6.7,0-13.4,0-20.1,0c-13.1,0-22.1,10.8-22.1,23.3c0,12.5,0,25,0,37.6     c0,57,0,114.1,0,171.1c0,60.2,0,120.5,0,180.7c0,16.5,0,33,0,49.5c0,2.7-0.1,5.5,0.1,8.2c0.5,11.4,10.6,20.5,21.9,20.5     c1.9,0,3.7,0,5.6,0c52.9,0,105.7,0,158.6,0c1.8,0,3.5,0,5.3,0c12.3,0,21.3-10,21.9-21.9c0.1-2.3,0-4.7,0-7.1c0-16.7,0-33.3,0-50     c0-60.3,0-120.7,0-181c0-56.9,0-113.8,0-170.7c0-10.5,0-21,0-31.6c0-2.1,0-4.2,0-6.3C362.7,20.4,353,11.1,340.8,10.5     c-9.7-0.5-9.6,14.5,0,15c6.9,0.3,6.9,6.2,6.9,11.2c0,5.7,0,11.4,0,17.2c0,21.6,0,43.3,0,64.9c0,63.4,0,126.8,0,190.2     c0,50.7,0,101.4,0,152.2c0,5.1,0,10.3,0,15.4c0,4.8-1.1,9.8-7.2,9.8c-21.4,0-42.8,0-64.1,0c-29.8,0-59.5,0-89.3,0     c-5.6,0-12.3,1-17.8-0.3c-5.5-1.3-4.8-7.1-4.8-11.4c0-42.3,0-84.5,0-126.8c0-64.6,0-129.3,0-193.9c0-39.7,0-79.3,0-119     c0-4.8,1.5-9.5,7.5-9.5c7.5,0,14.9,0,22.4,0c30.8,0,61.7,0,92.5,0c18,0,36,0,54,0C350.5,25.5,350.5,10.5,340.8,10.5z"/></g></g><g><path d="M295.7,117.2c0,21.9-17.8,39.6-39.7,39.6c-21.9,0-39.6-17.8-39.6-39.6c0-21.9,17.7-39.7,39.6-39.7    C277.9,77.5,295.7,95.3,295.7,117.2z" fill="#EC2127"/><g><path d="M288.2,117.2c-0.3,17.8-14.4,31.8-32.2,32.1c-17.8,0.3-31.8-14.8-32.1-32.1C223.5,99.4,238.7,85.3,256,85     C273.8,84.7,287.9,99.9,288.2,117.2c0.2,9.7,15.2,9.7,15,0c-0.4-24.7-18.7-44-43-46.9c-23.7-2.9-46,15.2-50.4,38.1     c-4.6,24,10.4,47.3,33.5,54.2c23.7,7.1,47.8-6.8,56.9-28.9c2.1-5.2,2.9-11,3-16.5C303.3,107.5,288.3,107.5,288.2,117.2z"/></g></g><g><path d="M295.7,256c0,21.9-17.8,39.7-39.7,39.7c-21.9,0-39.6-17.8-39.6-39.7c0-21.9,17.7-39.7,39.6-39.7    C277.9,216.3,295.7,234.1,295.7,256z" fill="#FAED23"/><g><path d="M288.2,256c-0.3,17.8-14.4,31.9-32.2,32.2c-17.8,0.3-31.8-14.8-32.1-32.2c-0.3-17.8,14.8-31.9,32.1-32.2     C273.8,223.5,287.9,238.7,288.2,256c0.2,9.7,15.2,9.7,15,0c-0.4-24.7-18.7-44-43-46.9c-23.7-2.9-46,15.2-50.4,38.1     c-4.6,24,10.4,47.3,33.5,54.2c23.7,7.1,47.8-6.8,56.9-28.9c2.1-5.2,2.9-11,3-16.5C303.3,246.3,288.3,246.3,288.2,256z"/></g></g><g><path d="M295.7,394.8c0,21.9-17.8,39.7-39.7,39.7c-21.9,0-39.6-17.7-39.6-39.7c0-21.9,17.7-39.7,39.6-39.7    C277.9,355.1,295.7,372.9,295.7,394.8z" fill="#69BD45"/><g><path d="M288.2,394.8c-0.3,17.8-14.4,31.8-32.2,32.2c-17.8,0.3-31.8-14.8-32.1-32.2c-0.3-17.8,14.8-31.9,32.1-32.2     C273.8,362.3,287.9,377.5,288.2,394.8c0.2,9.7,15.2,9.7,15,0c-0.4-24.7-18.7-44-43-46.9c-23.7-2.9-46,15.2-50.4,38.1     c-4.6,24,10.4,47.3,33.5,54.2c23.7,7.1,47.8-6.8,56.9-28.9c2.1-5.2,2.9-11,3-16.5C303.3,385.1,288.3,385.1,288.2,394.8z"/></g></g></g></svg>